<svg width="512" height="512" viewBox="0 0 512 512" fill="none" xmlns="http://www.w3.org/2000/svg">
<rect width="512" height="512" fill="#1E2A4E"/>
<path d="M112.023 171.961C116.19 172.091 119.836 172.156 122.961 172.156C126.086 172.026 128.625 171.961 130.578 171.961H136.242C137.674 171.831 139.432 171.766 141.516 171.766C143.339 171.766 145.552 171.766 148.156 171.766C150.76 171.766 153.755 171.831 157.141 171.961C158.182 175.607 159.354 179.188 160.656 182.703C162.089 186.089 163.326 189.148 164.367 191.883C165.669 195.138 166.971 198.198 168.273 201.062C169.576 203.927 171.138 207.378 172.961 211.414C174.523 214.799 176.411 218.966 178.625 223.914C180.839 228.732 183.443 234.266 186.438 240.516C187.87 236.479 189.172 232.768 190.344 229.383C191.646 225.997 192.753 223.068 193.664 220.594C194.706 217.729 195.552 215.125 196.203 212.781C196.854 210.438 197.57 207.573 198.352 204.188C199.003 201.323 199.719 197.872 200.5 193.836C201.411 189.799 202.323 185.112 203.234 179.773C207.01 179.773 210.396 179.773 213.391 179.773C216.385 179.773 218.99 179.708 221.203 179.578C223.677 179.578 225.891 179.513 227.844 179.383C229.927 179.383 232.727 179.253 236.242 178.992C239.237 178.732 243.208 178.536 248.156 178.406C253.234 178.146 259.484 177.82 266.906 177.43C264.172 179.383 261.958 181.336 260.266 183.289C258.703 185.112 257.466 186.74 256.555 188.172C255.513 189.865 254.862 191.492 254.602 193.055C254.341 194.357 254.081 197.352 253.82 202.039C253.69 206.727 253.495 212.326 253.234 218.836C253.104 225.216 252.974 232.052 252.844 239.344C252.844 246.635 252.909 253.536 253.039 260.047C253.169 266.557 253.365 272.221 253.625 277.039C254.016 281.727 254.536 284.721 255.188 286.023C256.099 287.586 257.336 289.409 258.898 291.492C260.331 293.315 262.154 295.398 264.367 297.742C266.711 300.086 269.771 302.69 273.547 305.555C267.557 305.815 262.544 306.01 258.508 306.141C254.602 306.271 251.346 306.401 248.742 306.531C245.747 306.661 243.339 306.727 241.516 306.727C239.562 306.727 236.893 306.792 233.508 306.922C230.513 307.052 226.542 307.247 221.594 307.508C216.646 307.638 210.266 307.898 202.453 308.289C204.276 306.206 205.969 304.122 207.531 302.039C209.094 299.956 210.396 298.068 211.438 296.375C212.74 294.422 213.846 292.534 214.758 290.711C215.669 288.237 216.385 283.745 216.906 277.234C217.427 271.635 217.818 263.628 218.078 253.211C218.339 242.664 218.339 228.536 218.078 210.828C215.604 214.865 213.391 218.901 211.438 222.938C209.615 226.844 207.987 230.424 206.555 233.68C204.992 237.456 203.56 241.102 202.258 244.617C200.956 248.263 199.589 252.299 198.156 256.727C196.854 260.503 195.292 264.995 193.469 270.203C191.776 275.411 189.823 281.141 187.609 287.391L180.188 287.781C179.146 282.573 178.104 277.885 177.062 273.719C176.021 269.422 174.979 265.776 173.938 262.781C172.766 259.266 171.594 256.141 170.422 253.406C169.12 250.672 167.688 247.612 166.125 244.227C164.693 241.362 162.935 237.977 160.852 234.07C158.898 230.164 156.62 225.802 154.016 220.984C152.714 234.266 151.932 245.073 151.672 253.406C151.411 261.609 151.411 267.99 151.672 272.547C151.932 278.016 152.323 281.987 152.844 284.461C153.625 286.674 154.862 289.148 156.555 291.883C157.987 294.227 159.94 297.026 162.414 300.281C165.018 303.406 168.339 306.922 172.375 310.828C169.51 310.828 166.516 310.828 163.391 310.828C160.266 310.828 157.401 310.893 154.797 311.023C151.672 311.154 148.612 311.219 145.617 311.219C142.492 311.349 138.846 311.544 134.68 311.805C131.034 312.065 126.672 312.326 121.594 312.586C116.516 312.846 110.656 313.302 104.016 313.953C106.88 312.13 109.224 310.372 111.047 308.68C112.87 306.857 114.302 305.229 115.344 303.797C116.646 302.104 117.622 300.411 118.273 298.719C118.664 297.677 118.99 295.398 119.25 291.883C119.641 288.367 119.966 284.07 120.227 278.992C120.617 273.914 120.878 268.25 121.008 262C121.268 255.75 121.464 249.435 121.594 243.055C121.854 236.544 122.049 230.229 122.18 224.109C122.31 217.859 122.375 212.26 122.375 207.312C122.505 202.234 122.57 198.003 122.57 194.617C122.57 191.232 122.57 189.083 122.57 188.172C122.18 186.219 121.594 184.266 120.812 182.312C120.161 180.62 119.12 178.862 117.688 177.039C116.255 175.216 114.367 173.523 112.023 171.961ZM346.984 170.984C355.318 170.854 362.154 172.352 367.492 175.477C372.961 178.602 377.388 182.312 380.773 186.609C384.159 190.906 386.763 195.268 388.586 199.695C390.409 203.992 391.841 207.378 392.883 209.852C393.143 210.503 393.664 211.349 394.445 212.391C395.096 213.302 396.008 214.409 397.18 215.711C398.482 216.883 400.109 218.25 402.062 219.812C398.026 219.943 394.445 220.073 391.32 220.203C388.195 220.203 385.526 220.268 383.312 220.398C380.839 220.529 378.625 220.659 376.672 220.789C374.719 220.919 372.31 221.115 369.445 221.375C366.841 221.635 363.651 221.896 359.875 222.156C356.099 222.417 351.477 222.807 346.008 223.328C349.263 219.422 351.802 215.971 353.625 212.977C355.578 209.852 357.01 207.117 357.922 204.773C358.964 202.299 359.549 200.151 359.68 198.328C359.94 196.505 359.875 194.943 359.484 193.641C358.703 190.646 356.685 188.497 353.43 187.195C344.055 184.591 335.852 186.674 328.82 193.445C321.919 200.086 316.971 211.023 313.977 226.258C312.544 233.81 311.177 241.688 309.875 249.891C308.703 257.964 308.247 265.385 308.508 272.156C308.768 278.797 310.07 284.201 312.414 288.367C314.758 292.534 318.794 294.487 324.523 294.227C330.122 293.966 334.875 293.055 338.781 291.492C342.688 289.799 345.812 287.846 348.156 285.633C350.5 283.289 352.128 280.815 353.039 278.211C354.081 275.477 354.471 272.938 354.211 270.594C353.69 268.771 352.323 266.818 350.109 264.734C348.156 262.911 345.227 260.893 341.32 258.68C337.414 256.336 331.815 253.927 324.523 251.453C331.424 251.062 337.089 250.802 341.516 250.672C346.073 250.411 349.654 250.151 352.258 249.891C355.383 249.63 357.792 249.435 359.484 249.305C361.047 249.174 363.326 249.044 366.32 248.914C368.924 248.784 372.245 248.719 376.281 248.719C380.448 248.719 385.656 248.654 391.906 248.523C389.562 250.867 387.74 253.016 386.438 254.969C385.786 256.01 385.201 256.922 384.68 257.703C384.159 259.005 383.964 261.674 384.094 265.711C384.094 269.096 384.354 274.109 384.875 280.75C385.396 287.26 386.372 296.18 387.805 307.508L361.828 311.023L363 284.656C360.005 291.818 356.229 297.156 351.672 300.672C347.245 304.188 343.013 306.661 338.977 308.094C334.159 309.786 329.146 310.568 323.938 310.438C317.167 309.786 310.396 308.224 303.625 305.75C296.854 303.276 290.865 299.5 285.656 294.422C280.448 289.214 276.411 282.508 273.547 274.305C270.812 266.102 269.966 255.945 271.008 243.836C272.18 231.727 275.044 221.18 279.602 212.195C284.289 203.081 290.083 195.529 296.984 189.539C303.885 183.549 311.633 179.057 320.227 176.062C328.951 172.938 337.87 171.245 346.984 170.984Z" fill="white"/>
</svg>
